# xmcd
#
# Track frame offsets:
#	150
#	12807
#	25232
#	39476
#	49708
#	64215
#	73976
#	86832
#	101888
#	113489
#	128084
#	136423
#	150279
#	161942
#	174122
#	187165
#	196541
#	208391
#	221711
#	234713
#	248002
#	262825
#	273661
#	286663
#
# Disc length: 4013 seconds
#
# Revision: 3
# Processed by: cddbd v1.5.2PL0 Copyright (c) Steve Scherf et al.
# Submitted via: audiograbber 1.83.01
#
DISCID=5b0fab18
DTITLE=Duane Eddy - The Biggest Twang Of Them All - The Roaring Twangies
DYEAR=2002
DGENRE=Oldies
TTITLE0=This Guitar Was Made For Twangin'  
TTITLE1=Batman 
TTITLE2=Monday, Monday 
TTITLE3=Strangers In The Night  
TTITLE4=Night Train  
TTITLE5=The Ballad Of The Green Berets  
TTITLE6=Daydream 
TTITLE7=What Now My Love  
TTITLE8=Younger Girl  
TTITLE9=Where Were You When I Needed You 
TTITLE10=A Groovy Kind Of Love  
TTITLE11=Mame 
TTITLE12=Bye Bye Blues  
TTITLE13=Roarin' 
TTITLE14=A Happy Girl  
TTITLE15=Goofus 
TTITLE16=American Patrol  
TTITLE17=Out On The Town  
TTITLE18=Undecided  
TTITLE19=Born Free  
TTITLE20=St Louis Blues March  
TTITLE21=Hello, Dolly 
TTITLE22=A String Of Pearls  
TTITLE23=Wicked Woman From Wickenburg 
EXTD=
EXTT0=
EXTT1=
EXTT2=
EXTT3=
EXTT4=
EXTT5=
EXTT6=
EXTT7=
EXTT8=
EXTT9=
EXTT10=
EXTT11=
EXTT12=
EXTT13=
EXTT14=
EXTT15=
EXTT16=
EXTT17=
EXTT18=
EXTT19=
EXTT20=
EXTT21=
EXTT22=
EXTT23=
PLAYORDER=
